<?xml version="1.0" encoding="UTF-8" standalone="no"?>
<svg
   xmlns:dc="http://purl.org/dc/elements/1.1/"
   xmlns:cc="http://creativecommons.org/ns#"
   xmlns:rdf="http://www.w3.org/1999/02/22-rdf-syntax-ns#"
   xmlns:svg="http://www.w3.org/2000/svg"
   xmlns="http://www.w3.org/2000/svg"
   xmlns:sodipodi="http://sodipodi.sourceforge.net/DTD/sodipodi-0.dtd"
   xmlns:inkscape="http://www.inkscape.org/namespaces/inkscape"
   id="Layer_1"
   style="enable-background:new 0 0 128 128;"
   version="1.1"
   viewBox="0 0 128 128"
   xml:space="preserve"
   sodipodi:docname="icone-loupe.svg"
   inkscape:export-filename="/var/www/html/opee-theme/imgs/icone-loupe.png"
   inkscape:export-xdpi="24.6"
   inkscape:export-ydpi="24.6"
   inkscape:version="0.92.3 (2405546, 2018-03-11)"><metadata
     id="metadata1348"><rdf:RDF><cc:Work
         rdf:about=""><dc:format>image/svg+xml</dc:format><dc:type
           rdf:resource="http://purl.org/dc/dcmitype/StillImage" /></cc:Work></rdf:RDF></metadata><defs
     id="defs1346" /><sodipodi:namedview
     pagecolor="#ffffff"
     bordercolor="#666666"
     borderopacity="1"
     objecttolerance="10"
     gridtolerance="10"
     guidetolerance="10"
     inkscape:pageopacity="0"
     inkscape:pageshadow="2"
     inkscape:window-width="1875"
     inkscape:window-height="1056"
     id="namedview1344"
     showgrid="false"
     inkscape:zoom="3.6875"
     inkscape:cx="22.3625"
     inkscape:cy="40.624784"
     inkscape:window-x="45"
     inkscape:window-y="24"
     inkscape:window-maximized="1"
     inkscape:current-layer="Layer_1" /><style
     type="text/css"
     id="style1333">
	.st0{fill:#0A0A0A;}
</style><g
     id="Layer_1_1_" /><g
     id="Layer_1_2_" /><path
     style="fill:#4458a3;fill-opacity:1"
     inkscape:connector-curvature="0"
     id="path1337"
     d="m 62.98788,20.1 c 5.8,-5.9 13.6,-9.1 21.9,-9.1 8.3,0 16.1,3.2 21.9,9.1 5.9,5.8 9.1,13.6 9.1,21.9 0,8.3 -3.2,16.1 -9.1,21.9 -5.8,5.9 -13.6,9.1 -21.9,9.1 -8.3,0 -16.1,-3.2 -21.9,-9.1 -12.1,-12.1 -12.1,-31.7 0,-43.8 z m 50.9,21.9 c 0,-7.7 -3,-15 -8.5,-20.5 -5.5,-5.5 -12.8,-8.5 -20.5,-8.5 -7.7,0 -15,3 -20.5,8.5 -21.59157,34.955236 46.96673,63.279448 49.5,20.5 z"
     class="st0"
     sodipodi:nodetypes="cscscscccsscc" /><path
     style="fill:#4458a3;fill-opacity:1"
     inkscape:connector-curvature="0"
     id="path1339"
     d="m 1.88788,116.7 50.1,-50.3 c -11.9,-16 -10.6,-38.8 3.9,-53.4 16,-16 42,-16 58,0 16,16 16,42 0,58 -7.7,7.7 -18,12 -29,12 -8.9,0 -17.4,-2.8 -24.4,-8.1 l -50.2,50.2 c -0.6,0.5 -1.3,0.8 -2,0.8 -0.8,0 -1.5,-0.3 -2.1,-0.8 l -4.2,-4.2 c -1.3,-1.2 -1.3,-3 -0.1,-4.2 z m 110.6,-47.1 c 15.2,-15.2 15.2,-39.9 0,-55.2 -15.2,-15.2 -39.9,-15.2 -55.2,0 -7.3,7.4 -11.4,17.2 -11.4,27.6 0,10.4 4.1,20.2 11.4,27.6 7.3,7.4 17.2,11.4 27.6,11.4 10.4,0 20.2,-4.1 27.6,-11.4 z"
     class="st0"
     sodipodi:nodetypes="cccsssccsccccccsssc" /></svg>